<svg width="25" height="25" viewBox="0 0 25 25" fill="none" xmlns="http://www.w3.org/2000/svg">
<path d="M12.5 0C5.60288 0 0 5.60288 0 12.5C0 19.3971 5.60288 25 12.5 25C19.3971 25 25 19.3971 25 12.5C25 5.60288 19.3971 0 12.5 0ZM12.5 1.08696C18.8097 1.08696 23.913 6.19031 23.913 12.5C23.913 18.8097 18.8097 23.913 12.5 23.913C6.19031 23.913 1.08696 18.8097 1.08696 12.5C1.08696 6.19031 6.19031 1.08696 12.5 1.08696ZM12.5 4.8913C12.0676 4.8913 11.6529 5.06308 11.3471 5.36885C11.0413 5.67461 10.8696 6.08932 10.8696 6.52174C10.8696 6.95416 11.0413 7.36887 11.3471 7.67463C11.6529 7.9804 12.0676 8.15217 12.5 8.15217C12.9324 8.15217 13.3471 7.9804 13.6529 7.67463C13.9587 7.36887 14.1304 6.95416 14.1304 6.52174C14.1304 6.08932 13.9587 5.67461 13.6529 5.36885C13.3471 5.06308 12.9324 4.8913 12.5 4.8913ZM10.3261 10.3261V11.413H10.8696H11.413V18.4783H10.8696H10.3261V19.5652H10.8696H11.413H13.587H14.1304H14.6739V18.4783H14.1304H13.587V10.3261H13.0435H10.8696H10.3261Z" fill="white"/>
</svg>
